<svg id="stroke" xmlns="http://www.w3.org/2000/svg" viewBox="0 0 181.7 222.85"><defs><style>.cls-1,.cls-2{fill:none;stroke:#fff;stroke-miterlimit:10;}.cls-1{stroke-width:2px;}.cls-3{fill:#fff;}</style></defs><path class="cls-1" d="M164.48,136.07c1.26-2.56,5-10,5.82-12.22.73-1.85.65-1.76,1.87-4.91,1.39-3.59,3.25-8.19,3.87-9.53,3.64-7.87,14.93-11.6,15.7-11.85,11-3.58,25.15-.44,32.3,8.88,4.19,5.47,4.65,11.39,5.33,19.86.77,9.6-1.18,10.23-1.93,27-.18,4.11-.72,19,4.6,26.67a25.51,25.51,0,0,0,3.85,4.29,23.13,23.13,0,0,0,8.59,4.59c2.43.76,10.05,5.9,25.19,16.15,25,16.95,22.11,15.52,24.89,17a50.62,50.62,0,0,1,11.11,7.7c4.33,4,3.39,4.7,6.66,7.11,5.72,4.23,9.95,3.18,13.78,7.86a12.76,12.76,0,0,1,2.52,4.59c2.07,9.7-31.33,30.82-69,37.93-17.8,3.35-39.83,7.18-59.55-5-3.75-2.32-14-8.83-20.15-21.63-5.61-11.6-5-22.42-4.59-30.82.6-11.34,3.48-18.27,4.44-20.44,2-4.43,3.47-7.83,7-11.11,4.3-4,7.29-3.87,8.89-7.41.88-2,.15-5.25-1.33-11.85,0,0-2.15-9.6-6.35-14.35l0,0c-1.78-2-2.65-2.54-3.11-2.67-2.59-.09-6.62-.15-11.56.15-7.44.46-10.3,1.34-15,.15-1.63-.42-8.51-2.17-9.19-6.22-.47-2.82,2.23-5.7,3.56-7.12s1.42-1,5.63-4.59a23.17,23.17,0,0,0,3.7-3.55A23.55,23.55,0,0,0,164.48,136.07Z" transform="translate(-148.02 -95.12)"/><path class="cls-2" d="M193.81,160.07" transform="translate(-148.02 -95.12)"/><path class="cls-1" d="M187.89,164.52l4.44-3.41c1-2.47,2-6.34.45-10.07-.42-1-.88-1.67-3.71-4.89-7.17-8.18-7.75-8-8.59-10.08-1.8-4.36.06-6.53-2.07-9.18-2-2.47-5.51-2.93-8-3" transform="translate(-148.02 -95.12)"/><path class="cls-1" d="M159.66,295.63l45.14-10.86" transform="translate(-148.02 -95.12)"/><path class="cls-1" d="M196.78,317l62.81-29.77" transform="translate(-148.02 -95.12)"/><path class="cls-1" d="M227.89,216.67a117.84,117.84,0,0,0,9.18,20.44c5.19,9.12,8.78,15.43,16,21,3.37,2.62,13.49,10.24,27.86,9.78,1.38-.05,15.45-.71,25.77-11,2.54-2.52,6.3-6.25,5.63-10.37-.43-2.7-2.51-3.91-11.26-10.07-11-7.73-9.5-7.08-13.16-9.34a126.09,126.09,0,0,0-16.17-8.44" transform="translate(-148.02 -95.12)"/><path class="cls-1" d="M196,295.93q2.36,20.71.74,21t-7.71-21.48" transform="translate(-148.02 -95.12)"/><path class="cls-1" d="M202.7,296.67" transform="translate(-148.02 -95.12)"/><path class="cls-1" d="M203.44,297a41.49,41.49,0,0,1-6.18,19.09" transform="translate(-148.02 -95.12)"/><path class="cls-1" d="M160.4,295.45q.19-10.72.38-21.45" transform="translate(-148.02 -95.12)"/><path class="cls-1" d="M151.44,277.85a43.58,43.58,0,0,0,3,9.48c2,4.5,4.74,8.54,5.25,8.3s-1.38-3.9-2.59-9.78a51.51,51.51,0,0,1-1-10.22" transform="translate(-148.02 -95.12)"/><path class="cls-3" d="M201.24,125.21a5,5,0,0,0-2.57,4.4A4.69,4.69,0,0,0,202,134a4.3,4.3,0,0,0,4.93-2,4.41,4.41,0,0,0,.54-2.75,3.94,3.94,0,0,0-.47-1.44,4.14,4.14,0,0,0-1.27-1.33,4,4,0,0,0-1.15-.53,3.6,3.6,0,0,0-.64-.12,4.74,4.74,0,0,0-.65,0,3.91,3.91,0,0,0-2.86,1.26,2.6,2.6,0,0,0-.64,1.1,2.5,2.5,0,0,0,0,1.33,2.55,2.55,0,0,0,1.75,1.75,4.08,4.08,0,0,0,1.84,0,1.54,1.54,0,0,0,.35-.1,4.45,4.45,0,0,0,.86-.39,3.78,3.78,0,0,0-2.31-7,4.58,4.58,0,0,0-2.72,1.14,3.85,3.85,0,0,0-1,1.37,5.19,5.19,0,0,0-.55,2.26,4.82,4.82,0,0,0,.59,2.26A4.5,4.5,0,0,0,202.5,133a5.22,5.22,0,0,0,2.26-.54,2.62,2.62,0,0,0,.49-.27,4.13,4.13,0,0,0,.9-.77,4.42,4.42,0,0,0,1.09-2.38,4.68,4.68,0,0,0-.48-2.7,5.18,5.18,0,0,0-1.65-1.86,4.51,4.51,0,0,0-6.56,1.56,4.86,4.86,0,0,0,0,4.89,2.58,2.58,0,0,0,1.5,1.15,2.55,2.55,0,0,0,1.93-.25,2.51,2.51,0,0,0,1.14-1.49,2.55,2.55,0,0,0-.25-1.93,1.59,1.59,0,0,1-.15-.29l.25.6a2.56,2.56,0,0,1-.15-.56l.09.67a2.25,2.25,0,0,1,0-.58l-.09.67a2.36,2.36,0,0,1,.19-.69l-.25.59a2.61,2.61,0,0,1,.32-.56l-.39.51a3.25,3.25,0,0,1,.41-.42l-.51.4a2.48,2.48,0,0,1,.49-.3l-.59.26a2.13,2.13,0,0,1,.43-.13l-.66.09a2.09,2.09,0,0,1,.5,0l-.66-.09a2.12,2.12,0,0,1,.55.14l-.6-.25a2.77,2.77,0,0,1,.55.33l-.5-.39a2.79,2.79,0,0,1,.45.46l-.39-.5a2.84,2.84,0,0,1,.33.56l-.25-.6a2.64,2.64,0,0,1,.15.55l-.09-.66a2.66,2.66,0,0,1,0,.49l.09-.66a4.05,4.05,0,0,1-.12.47l.25-.6a2.67,2.67,0,0,1-.25.43l.4-.51a2.87,2.87,0,0,1-.39.39l.5-.39a3.07,3.07,0,0,1-.53.31l.6-.26a2.66,2.66,0,0,1-.67.18l.67-.09a2.57,2.57,0,0,1-.62,0l.66.08a2.44,2.44,0,0,1-.59-.15l.6.25a2,2,0,0,1-.37-.22l.51.39a1.66,1.66,0,0,1-.35-.35l.39.51a2,2,0,0,1-.22-.37l.25.6a2.46,2.46,0,0,1-.15-.53l.09.67a3.21,3.21,0,0,1,0-.62l-.09.66a3.05,3.05,0,0,1,.17-.66l-.25.6a2.9,2.9,0,0,1,.31-.54l-.39.51a2,2,0,0,1,.38-.39l-.5.39a2.22,2.22,0,0,1,.42-.25l-.6.25a2,2,0,0,1,.48-.12l-.66.09a1.85,1.85,0,0,1,.47,0l-.66-.09a2.15,2.15,0,0,1,.36.11l-.59-.25c.08.05.16.09.24.15l-.51-.39a1.89,1.89,0,0,1,.2.2l-.39-.5a1.49,1.49,0,0,1,.18.3l-.25-.6a2.3,2.3,0,0,1,.1.35l-.09-.67a2.08,2.08,0,0,1,0,.35l.08-.66a1,1,0,0,1-.09.34l.25-.59a1.28,1.28,0,0,1-.15.25l.39-.51-.21.21.5-.39-.31.19.59-.26a1.4,1.4,0,0,1-.35.1l.66-.09a1.45,1.45,0,0,1-.36,0l.66.09-.14,0,1.1,4.18a2.28,2.28,0,0,1,.22-.22l-.5.39a1.92,1.92,0,0,1,.31-.18l-.59.25a1.44,1.44,0,0,1,.42-.11l-.67.09a1.62,1.62,0,0,1,.44,0l-.66-.09a2.09,2.09,0,0,1,.49.13l-.6-.25a1.79,1.79,0,0,1,.38.22l-.5-.39a2.23,2.23,0,0,1,.26.27l-.39-.51a2.54,2.54,0,0,1,.16.28l-.25-.6a1.82,1.82,0,0,1,.11.4l-.09-.67a1.93,1.93,0,0,1,0,.48l.09-.67a2.42,2.42,0,0,1-.13.46l.25-.59a2.25,2.25,0,0,1-.28.47l.39-.5a2.73,2.73,0,0,1-.34.34l.5-.39a2,2,0,0,1-.35.21l.6-.26a1.59,1.59,0,0,1-.41.12l.66-.09a2.18,2.18,0,0,1-.51,0l.67.09a2,2,0,0,1-.5-.13l.6.25a2.32,2.32,0,0,1-.51-.29l.5.39a2.78,2.78,0,0,1-.42-.42l.39.5a2.43,2.43,0,0,1-.26-.44l.25.59a2.17,2.17,0,0,1-.13-.5l.09.66a2,2,0,0,1,0-.6l-.09.67a3,3,0,0,1,.16-.59l-.25.6a2.66,2.66,0,0,1,.34-.59l-.39.5a3.17,3.17,0,0,1,.49-.48l-.51.39a3.62,3.62,0,0,1,.33-.2,2.5,2.5,0,0,0-2.53-4.32Z" transform="translate(-148.02 -95.12)"/><path class="cls-3" d="M171,143.25a1.25,1.25,0,0,0,0-2.5,1.25,1.25,0,0,0,0,2.5Z" transform="translate(-148.02 -95.12)"/></svg>